<svg width="118" height="36" viewBox="0 0 118 36" fill="none" xmlns="http://www.w3.org/2000/svg">
<path d="M46.8965 16.9689C46.8965 22.2628 50.5348 25.2038 54.036 25.2038C56.5677 25.2038 59.1679 23.8188 60.6582 20.9838C60.7267 20.8094 60.9357 20.741 61.0727 20.847L64.2622 22.8886C64.365 22.957 64.4369 23.1314 64.365 23.234C62.2512 27.56 58.2293 29.6016 54.2073 29.6016C48.2121 29.6016 42.1791 25.1388 42.1791 16.9724C42.1791 8.80593 48.2121 4.34312 54.2073 4.34312C58.2293 4.34312 62.2478 6.38473 64.365 10.7108C64.4335 10.8133 64.365 10.9878 64.2622 11.0561L61.0727 13.0978C60.9357 13.2003 60.7267 13.132 60.6582 12.961C59.1679 10.1225 56.5677 8.74096 54.036 8.74096C50.504 8.73412 46.8965 11.7093 46.8965 16.9689Z" fill="white"/>
<path d="M66.2047 23.7162C66.2047 29.01 70.7816 30.9148 74.7316 28.3876L77.1571 26.8316C77.4003 26.6572 77.6093 26.7974 77.6093 27.0402V28.8048C77.6093 28.9416 77.7464 29.0818 77.8868 29.0818H81.8368C81.9739 29.0818 82.1143 28.945 82.1143 28.8048V12.0581C82.1143 11.9214 81.9773 11.7811 81.8368 11.7811H77.8868C77.7498 11.7811 77.6093 11.9179 77.6093 12.0581V21.401C77.6093 24.3762 75.7388 25.7954 73.9334 25.7954C72.2684 25.7954 70.7096 24.9302 70.7096 22.3004V12.0581C70.7096 11.9214 70.5726 11.7811 70.4322 11.7811H66.4821C66.3451 11.7811 66.2047 11.9179 66.2047 12.0581V23.7162Z" fill="white"/>
<path d="M85.5128 29.0818H89.4662C89.6032 29.0818 89.7437 28.945 89.7437 28.8048V5.13651C89.7437 4.99972 89.6066 4.85951 89.4662 4.85951H85.5128C85.3757 4.85951 85.2353 4.99972 85.2353 5.13651V28.8048C85.2353 28.9416 85.3757 29.0818 85.5128 29.0818Z" fill="white"/>
<path d="M105.41 14.3049V12.0547C105.41 11.9179 105.547 11.7777 105.688 11.7777H109.641C109.778 11.7777 109.919 11.9145 109.919 12.0547V35.723C109.919 35.8598 109.781 36 109.641 36H105.688C105.551 36 105.41 35.8632 105.41 35.723V27.1428C105.41 26.8658 105.098 26.7632 104.889 26.9684C103.468 28.6304 101.491 29.4614 99.7951 29.4614C95.9822 29.4614 92.1692 26.452 92.1692 20.4982C92.1692 15.2385 95.7047 11.3981 99.3429 11.3981C100.21 11.3981 101.32 11.6751 102.358 12.5061L104.958 14.5135C105.167 14.6503 105.41 14.5477 105.41 14.3049ZM96.8489 20.464C96.8489 23.1622 98.7537 25.3782 101.251 25.3782C103.262 25.3782 105.41 23.234 105.41 20.293C105.41 17.0066 103.156 15.3104 101.285 15.3104C99.0654 15.3104 96.8489 16.9689 96.8489 20.464Z" fill="white"/>
<path d="M114.979 9.59932C116.537 9.59932 117.75 8.42292 117.75 6.76091C117.75 5.17071 116.537 3.99431 114.979 3.99431C113.348 3.99431 112.101 5.17071 112.101 6.76091C112.101 8.35111 113.348 9.59932 114.979 9.59932ZM112.968 29.0818H116.921C117.058 29.0818 117.199 28.945 117.199 28.8048V12.0581C117.199 11.9214 117.061 11.7811 116.921 11.7811H112.968C112.831 11.7811 112.69 11.9179 112.69 12.0581V28.8048C112.69 28.9416 112.827 29.0818 112.968 29.0818Z" fill="white"/>
<path d="M28.5785 25.5115L18.3215 15.2762L15.1115 18.2685L25.4712 28.6133L31.9632 35.0938L35.0705 31.992L28.5785 25.5115Z" fill="#763383"/>
<path d="M32.9875 12.5027C31.0656 5.13993 24.3921 0 16.7627 0C11.3807 0 6.28987 2.60929 3.14493 6.97635C1.086 9.83186 0 13.2072 0 16.733C0 20.9393 1.55191 24.9131 4.37481 28.0011C2.84688 26.281 1.99385 24.1368 1.99385 21.8113C1.99385 19.3628 2.9291 17.1297 4.46389 15.4506C4.68314 13.3166 5.44368 11.2887 6.70782 9.53434C9.03055 6.30949 12.7887 4.38416 16.7627 4.38416C22.3948 4.38416 27.3178 8.17669 28.7361 13.6107C28.9998 14.623 29.1335 15.6763 29.1335 16.7364C29.1335 19.373 28.3147 21.8866 26.7628 24.0103L26.8895 23.8324L30.0276 26.9649C32.1311 24.0889 33.5254 20.3101 33.5254 16.7364C33.5254 15.3001 33.3438 13.8775 32.9875 12.5027Z" fill="#EB6F25"/>
<path d="M4.81675 28.4731C4.66601 28.3192 4.5187 28.1619 4.37482 28.0011C4.5187 28.1619 4.66259 28.3192 4.81675 28.4731Z" fill="#00A19B"/>
<path d="M26.8895 23.829L26.7628 24.0068C25.9919 25.0601 25.0635 25.9835 24.0049 26.7495C21.8878 28.2781 19.3835 29.0852 16.7627 29.0852C13.4225 29.0852 10.2913 27.7754 7.94454 25.3987C6.97503 24.4377 6.38578 23.1758 6.38578 21.8148C6.38578 19.014 8.6674 16.7364 11.4732 16.7364C12.8846 16.7364 14.2002 17.3007 15.1697 18.3266L18.3591 15.3138C16.5777 13.4329 14.0665 12.3522 11.4732 12.3522C8.69823 12.3522 6.19736 13.5492 4.46388 15.454C2.93252 17.1365 1.99384 19.3696 1.99384 21.8148C1.99384 24.1402 2.84687 26.2844 4.3748 28.0046C4.51869 28.1619 4.666 28.3226 4.81674 28.4765C7.99251 31.6979 12.2371 33.4694 16.7627 33.4694C20.3153 33.4694 23.7103 32.375 26.5778 30.3026C27.9001 29.3451 29.0341 28.2576 30.0276 26.9649L26.8895 23.829Z" fill="#00A19B"/>
</svg>
