<svg width="118" height="36" viewBox="0 0 118 36" fill="none" xmlns="http://www.w3.org/2000/svg">
<path d="M47.0215 16.969C47.0215 22.2628 50.6598 25.2038 54.161 25.2038C56.6927 25.2038 59.2929 23.8188 60.7832 20.9838C60.8517 20.8094 61.0607 20.741 61.1977 20.847L64.3872 22.8886C64.4899 22.957 64.5619 23.1314 64.4899 23.234C62.3762 27.56 58.3542 29.6016 54.3323 29.6016C48.337 29.6016 42.3041 25.1388 42.3041 16.9724C42.3041 8.80595 48.337 4.34314 54.3323 4.34314C58.3542 4.34314 62.3728 6.38475 64.4899 10.7108C64.5585 10.8134 64.4899 10.9878 64.3872 11.0562L61.1977 13.0978C61.0607 13.2004 60.8517 13.132 60.7832 12.961C59.2929 10.1226 56.6927 8.74097 54.161 8.74097C50.6289 8.73413 47.0215 11.7093 47.0215 16.969Z" fill="#3A3A3A"/>
<path d="M66.3296 23.7162C66.3296 29.01 70.9066 30.9148 74.8566 28.3876L77.2821 26.8316C77.5253 26.6572 77.7343 26.7974 77.7343 27.0402V28.8048C77.7343 28.9416 77.8713 29.0818 78.0118 29.0818H81.9618C82.0988 29.0818 82.2393 28.945 82.2393 28.8048V12.0581C82.2393 11.9213 82.1022 11.7811 81.9618 11.7811H78.0118C77.8747 11.7811 77.7343 11.9179 77.7343 12.0581V21.401C77.7343 24.3762 75.8638 25.7954 74.0583 25.7954C72.3934 25.7954 70.8346 24.9302 70.8346 22.3004V12.0581C70.8346 11.9213 70.6976 11.7811 70.5571 11.7811H66.6071C66.4701 11.7811 66.3296 11.9179 66.3296 12.0581V23.7162Z" fill="#3A3A3A"/>
<path d="M85.6377 29.0818H89.5911C89.7282 29.0818 89.8686 28.9451 89.8686 28.8048V5.13656C89.8686 4.99977 89.7316 4.85956 89.5911 4.85956H85.6377C85.5007 4.85956 85.3602 4.99977 85.3602 5.13656V28.8048C85.3602 28.9416 85.5007 29.0818 85.6377 29.0818Z" fill="#3A3A3A"/>
<path d="M105.535 14.3049V12.0547C105.535 11.9179 105.672 11.7777 105.813 11.7777H109.766C109.903 11.7777 110.043 11.9145 110.043 12.0547V35.723C110.043 35.8598 109.906 36 109.766 36H105.813C105.676 36 105.535 35.8632 105.535 35.723V27.1428C105.535 26.8658 105.223 26.7632 105.014 26.9684C103.593 28.6304 101.616 29.4614 99.9201 29.4614C96.1071 29.4614 92.2942 26.452 92.2942 20.4982C92.2942 15.2385 95.8296 11.3981 99.4679 11.3981C100.335 11.3981 101.445 11.6751 102.483 12.5061L105.083 14.5135C105.292 14.6503 105.535 14.5477 105.535 14.3049ZM96.9739 20.464C96.9739 23.1622 98.8786 25.3782 101.376 25.3782C103.387 25.3782 105.535 23.234 105.535 20.293C105.535 17.0066 103.281 15.3104 101.41 15.3104C99.1904 15.3104 96.9739 16.9689 96.9739 20.464Z" fill="#3A3A3A"/>
<path d="M115.103 9.59934C116.662 9.59934 117.875 8.42294 117.875 6.76092C117.875 5.17073 116.662 3.99432 115.103 3.99432C113.473 3.99432 112.226 5.17073 112.226 6.76092C112.226 8.35112 113.473 9.59934 115.103 9.59934ZM113.093 29.0818H117.046C117.183 29.0818 117.323 28.945 117.323 28.8048V12.0582C117.323 11.9214 117.186 11.7812 117.046 11.7812H113.093C112.955 11.7812 112.815 11.9179 112.815 12.0582V28.8048C112.815 28.9416 112.952 29.0818 113.093 29.0818Z" fill="#3A3A3A"/>
<path d="M28.7035 25.5115L18.4465 15.2761L15.2365 18.2684L25.5962 28.6133L32.0882 35.0937L35.1955 31.992L28.7035 25.5115Z" fill="#763383"/>
<path d="M33.1125 12.5027C31.1906 5.13993 24.5171 0 16.8877 0C11.5057 0 6.41487 2.60929 3.26993 6.97635C1.211 9.83186 0.125 13.2072 0.125 16.733C0.125 20.9393 1.67691 24.9131 4.49982 28.0011C2.97188 26.281 2.11885 24.1368 2.11885 21.8113C2.11885 19.3628 3.0541 17.1297 4.58889 15.4506C4.80814 13.3166 5.56868 11.2887 6.83282 9.53434C9.15555 6.30949 12.9137 4.38416 16.8877 4.38416C22.5198 4.38416 27.4428 8.17669 28.8611 13.6107C29.1248 14.623 29.2585 15.6763 29.2585 16.7364C29.2585 19.373 28.4397 21.8866 26.8878 24.0103L27.0145 23.8324L30.1526 26.9649C32.2561 24.0889 33.6504 20.3101 33.6504 16.7364C33.6504 15.3001 33.4688 13.8775 33.1125 12.5027Z" fill="#EB6F25"/>
<path d="M4.94175 28.4731C4.79101 28.3192 4.6437 28.1619 4.49982 28.0012C4.6437 28.1619 4.78759 28.3192 4.94175 28.4731Z" fill="#00A19B"/>
<path d="M27.0145 23.829L26.8878 24.0068C26.1169 25.0601 25.1885 25.9835 24.1299 26.7495C22.0128 28.2781 19.5085 29.0852 16.8877 29.0852C13.5475 29.0852 10.4163 27.7754 8.06954 25.3987C7.10003 24.4377 6.51078 23.1758 6.51078 21.8148C6.51078 19.014 8.7924 16.7364 11.5982 16.7364C13.0096 16.7364 14.3252 17.3007 15.2947 18.3266L18.4841 15.3138C16.7027 13.4329 14.1915 12.3522 11.5982 12.3522C8.82323 12.3522 6.32236 13.5492 4.58888 15.454C3.05752 17.1365 2.11884 19.3696 2.11884 21.8148C2.11884 24.1402 2.97187 26.2844 4.4998 28.0046C4.64369 28.1619 4.791 28.3226 4.94174 28.4765C8.11751 31.6979 12.3621 33.4694 16.8877 33.4694C20.4403 33.4694 23.8353 32.375 26.7028 30.3026C28.0251 29.3451 29.1591 28.2576 30.1526 26.9649L27.0145 23.829Z" fill="#00A19B"/>
</svg>
